<?xml version="1.0" encoding="utf-8"?>
<!-- Generator: Adobe Illustrator 24.0.2, SVG Export Plug-In . SVG Version: 6.00 Build 0)  -->
<svg version="1.1" id="Layer_1" xmlns="http://www.w3.org/2000/svg" xmlns:xlink="http://www.w3.org/1999/xlink" x="0px" y="0px"
	 viewBox="0 0 384 512" style="enable-background:new 0 0 384 512;" xml:space="preserve">
<style type="text/css">
	.st0{fill:#003888;}
</style>
<path class="st0" d="M288,358.3c14-8.1,17.5-30,28.9-41.4s33.3-14.9,41.4-28.9c8-13.8,0.2-34.5,4.4-50.3
	c4.1-15.2,20.5-29.2,20.5-45.7s-17.3-30.5-21.3-45.7c-4.2-15.8,3.6-36.5-4.4-50.3c-8.1-14-30-17.5-41.4-28.9s-14.9-33.3-28.9-41.4
	c-13.8-8-34.5-0.2-50.3-4.4C222.5,17.3,208.5,0,192,0s-30.5,17.3-45.7,21.3c-15.8,4.2-36.5-3.6-50.3,4.4c-14,8.1-17.5,30-28.9,41.4
	C55.8,78.4,33.8,82,25.7,95.9c-8,13.8-0.2,34.6-4.4,50.3C17.3,161.5,0,175.5,0,192s17.3,30.5,21.3,45.7c4.2,15.8-3.6,36.5,4.4,50.3
	c8.1,14,30,17.5,41.4,28.9C78.4,328.3,82,350.2,96,358.3c13.8,8,34.5,0.2,50.3,4.4c15.3,4,29.3,21.3,45.8,21.3s30.5-17.3,45.7-21.3
	C253.5,358.5,274.2,366.3,288,358.3z M112,192c0-44.3,35.8-80,80-80s80,35.7,80,80c0,44.2-35.8,80-80,80S112,236.2,112,192z
	 M1.7,433.2c-3.3,8.2-1.8,17.5,3.9,24.3c5.7,6.8,14.5,9.9,23.1,8.1l45.2-9l21.4,42.3c4.1,8.2,12.3,13.2,21.4,13.2c0.3,0,0.7,0,1,0
	c9.5-0.4,17.7-6.1,21.2-14.9l33.6-82.1c-53.7-4.6-102-28.1-138.2-64L1.7,433.2z M349.6,351.1c-36.1,35.8-84.4,59.3-138.2,64
	l33.6,82.1c3.6,8.8,11.7,14.5,21.2,14.9c0.4-0.9-0.1,0,1.1,0c9.1,0,17.2-5,21.4-13.1l21.4-42.3l45.2,9c8.6,1.8,17.5-1.4,23.1-8.1
	c5.7-6.8,7.1-16.1,3.9-24.3L349.6,351.1z"/>
</svg>
