<?xml version="1.0" encoding="utf-8"?>
<!-- Generator: Adobe Illustrator 24.0.2, SVG Export Plug-In . SVG Version: 6.00 Build 0)  -->
<svg version="1.1" id="Layer_1" xmlns="http://www.w3.org/2000/svg" xmlns:xlink="http://www.w3.org/1999/xlink" x="0px" y="0px"
	 viewBox="0 0 512 512" style="enable-background:new 0 0 512 512;" xml:space="preserve">
<style type="text/css">
	.st0{fill:#009688;}
</style>
<path class="st0" d="M45.6,79.7l6.4,1.5v58.5c-7,4.1-12,11.6-12,20.3c0,8.4,4.6,15.4,11.1,19.8L35.5,242c-1.8,6.9,2.1,14,7.6,14
	h41.8c5.5,0,9.4-7.1,7.6-13.1l-15.6-63.1C83.4,175.4,88,168.4,88,160c0-8.8-5-16.1-12-20.3V87.1l52,12.5l0,60.4
	c0,70.8,57.3,128,128,128s127.1-57.3,127.1-128l0.9-60.4l82.3-19.9c18.3-4.4,18.3-27,0-31.5l-190.4-46c-13-3-26.6-3-39.6,0
	l-190.6,46C27.5,52.6,27.5,75.4,45.6,79.7z M359.2,312.8L256,416L152.8,312.8C82.9,335.1,32,400,32,477.3
	c0,19.2,15.5,34.7,34.7,34.7h378.7c19.1,0,34.6-15.5,34.6-34.7C480,400,429.1,335.1,359.2,312.8z"/>
</svg>
